<?xml version="1.0" encoding="utf-8"?>
<!-- Generator: Adobe Illustrator 25.4.1, SVG Export Plug-In . SVG Version: 6.00 Build 0)  -->
<svg version="1.1" id="Слой_1" xmlns="http://www.w3.org/2000/svg" xmlns:xlink="http://www.w3.org/1999/xlink" x="0px" y="0px"
	 viewBox="0 0 358 255" style="enable-background:new 0 0 358 255;" xml:space="preserve">
<style type="text/css">
	.st0{fill:#00B5B5;}
	.st1{fill:#FFFFFF;}
</style>
<g>
	<g>
		<path class="st0" d="M6.7,0.5h29.4c3,0,5.7,1.9,6.7,4.8l18,54H46.4L1.6,12.4C-2.7,7.9,0.5,0.5,6.7,0.5z"/>
	</g>
	<g>
		<path class="st1" d="M135,7.3L58.2,251.9c-0.7,2.2-2.8,3.8-5.1,3.8H24.3c-3.6,0-6.2-3.5-5.1-7L96.3,4.1c0.7-2.2,2.8-3.8,5.1-3.8
			h28.4C133.5,0.3,136.1,3.8,135,7.3z"/>
	</g>
	<g>
		<path class="st1" d="M261.5,181.3l-109.3-66.6c-3-1.8-4.9-5.2-4.9-8.9V80.4c0-3.6,1.8-7,4.8-8.8L261.5,4.2
			c6.6-4.1,14.9,0.9,14.9,8.8v7.1c0,7.3-3.7,14-9.7,17.7l-61.6,38.3c-12.9,8.1-12.9,27.6,0.1,35.5l61.3,37.5
			c6.1,3.7,9.8,10.5,9.8,17.8v5.3C276.4,180.3,268.1,185.3,261.5,181.3z"/>
	</g>
	<g>
		<path class="st1" d="M229.3,245.2v-5.3c0-7.3,3.7-14.1,9.8-17.8l61.3-37.5c13-8,13.1-27.5,0.1-35.5l-61.6-38.3
			c-6-3.7-9.7-10.5-9.7-17.7v-7.1c0-8,8.3-12.9,14.9-8.8l109.3,67.3c3,1.9,4.8,5.2,4.8,8.8v25.4c0,3.7-1.9,7-4.9,8.9l-109.3,66.6
			C237.6,258.1,229.3,253.1,229.3,245.2z"/>
	</g>
</g>
</svg>
