<?xml version="1.0" encoding="utf-8"?>
<!-- Generator: Adobe Illustrator 25.4.1, SVG Export Plug-In . SVG Version: 6.00 Build 0)  -->
<svg version="1.1" xmlns="http://www.w3.org/2000/svg" xmlns:xlink="http://www.w3.org/1999/xlink" x="0px" y="0px"
	 viewBox="0 0 500 499" style="enable-background:new 0 0 500 499;" xml:space="preserve">
<style type="text/css">
	.st0{fill:#192F4F;}
	.st1{fill:#0C9393;}
	.st2{fill:#FFFFFF;}
</style>
<g id="Слой_2">
	<rect x="-0.5" y="0.5" class="st0" width="500" height="500"/>
</g>
<g id="Слой_1">
	<g>
		<g>
			<path class="st1" d="M77.2,123h29.4c3,0,5.7,1.9,6.7,4.8l18,54h-14.4l-44.9-46.9C67.8,130.4,71,123,77.2,123z"/>
		</g>
		<g>
			<path class="st2" d="M205.5,129.8l-76.8,244.6c-0.7,2.2-2.8,3.8-5.1,3.8H94.8c-3.6,0-6.2-3.5-5.1-7l77.1-244.6
				c0.7-2.2,2.8-3.8,5.1-3.8h28.4C204,122.8,206.6,126.3,205.5,129.8z"/>
		</g>
		<g>
			<path class="st2" d="M332,296.9l-109.3-64c-3-1.8-4.9-5-4.9-8.5v-24.4c0-3.5,1.8-6.7,4.8-8.5L332,126.7
				c6.6-3.9,14.9,0.8,14.9,8.5v6.8c0,7-3.7,13.4-9.7,17l-61.6,36.9c-12.9,7.7-12.9,26.5,0.1,34.1l61.3,36.1
				c6.1,3.6,9.8,10.1,9.8,17.1v5.1C346.9,296,338.6,300.8,332,296.9z"/>
		</g>
		<g>
			<path class="st2" d="M299.8,358.4v-5.1c0-7,3.7-13.5,9.8-17.1l61.3-36.1c13-7.6,13.1-26.4,0.1-34.1L309.4,229
				c-6-3.6-9.7-10.1-9.7-17v-6.8c0-7.7,8.3-12.4,14.9-8.5l109.3,64.7c3,1.8,4.8,5,4.8,8.5v24.4c0,3.5-1.9,6.8-4.9,8.5l-109.3,64
				C308.1,370.8,299.8,366,299.8,358.4z"/>
		</g>
	</g>
</g>
</svg>
