<svg xmlns="http://www.w3.org/2000/svg" viewBox="0 0 57.12 40.07"><g id="Слой_2" data-name="Слой 2"><g id="Слой_1-2" data-name="Слой 1"><path d="M1.35,19.75a3.45,3.45,0,0,0,2.12-.57,1.89,1.89,0,0,0,.76-1.61V6.24A5.22,5.22,0,0,1,5.48,2.51,4.59,4.59,0,0,1,9,1.19V3.77a2.14,2.14,0,0,0-1.55.53,2,2,0,0,0-.55,1.49V18a3.87,3.87,0,0,1-1.45,3.22,6.53,6.53,0,0,1-4.11,1.13ZM5.48,40a4.86,4.86,0,0,1-1.25-3.57V24.88a2.13,2.13,0,0,0-.76-1.74,3.27,3.27,0,0,0-2.12-.62V19.94a6.35,6.35,0,0,1,4.11,1.19,4.17,4.17,0,0,1,1.45,3.39V36.64a2,2,0,0,0,.55,1.51A2.1,2.1,0,0,0,9,38.68v2.58A4.72,4.72,0,0,1,5.48,40Z" transform="translate(-1.35 -1.19)"/><path d="M54.36,21.19A3.85,3.85,0,0,1,52.9,18V5.79a2,2,0,0,0-.55-1.49,2.14,2.14,0,0,0-1.55-.53V1.19a4.63,4.63,0,0,1,3.54,1.32,5.26,5.26,0,0,1,1.24,3.73V17.57a1.89,1.89,0,0,0,.76,1.61,3.45,3.45,0,0,0,2.12.57v2.57A6.48,6.48,0,0,1,54.36,21.19ZM50.8,38.68a2.1,2.1,0,0,0,1.55-.53,2,2,0,0,0,.55-1.51V24.52a4.15,4.15,0,0,1,1.46-3.39,6.3,6.3,0,0,1,4.1-1.19v2.58a3.27,3.27,0,0,0-2.12.62,2.13,2.13,0,0,0-.76,1.74V36.43A4.9,4.9,0,0,1,54.34,40a4.76,4.76,0,0,1-3.54,1.26Z" transform="translate(-1.35 -1.19)"/><path d="M15.08,7.81h3.06a.73.73,0,0,1,.69.5l1.88,5.62h-1.5L14.54,9.05A.74.74,0,0,1,15.08,7.81Z" transform="translate(-1.35 -1.19)"/><path d="M26.68,7.79,18.34,34.37h-2.4L24.32,7.79Z" transform="translate(-1.35 -1.19)"/><path d="M40.13,25.67,26.69,17.81V16.38l13.44-8v1.85a1,1,0,0,1-.5.89l-8.4,5a1,1,0,0,0,0,1.79l8.38,4.93a1,1,0,0,1,.51.9Z" transform="translate(-1.35 -1.19)"/><path d="M34.82,30.9a1,1,0,0,1,.52-.9l8.38-4.93a1,1,0,0,0,0-1.79l-8.39-5a1.06,1.06,0,0,1-.51-.9V15.52l13.44,8V24.9L34.82,32.77Z" transform="translate(-1.35 -1.19)"/></g></g></svg>