<?xml version="1.0" encoding="utf-8"?>
<!-- Generator: Adobe Illustrator 25.4.1, SVG Export Plug-In . SVG Version: 6.00 Build 0)  -->
<svg version="1.1" id="Слой_1" xmlns="http://www.w3.org/2000/svg" xmlns:xlink="http://www.w3.org/1999/xlink" x="0px" y="0px"
	 viewBox="0 0 345 255" style="enable-background:new 0 0 345 255;" xml:space="preserve">
<g>
	<path d="M7.2,0.1h29.4c3,0,5.7,1.9,6.7,4.8l18,54H47L2.1,12.1C-2.2,7.6,1,0.1,7.2,0.1z"/>
</g>
<g>
	<path d="M135.5,7L58.8,251.6c-0.7,2.2-2.8,3.8-5.1,3.8H24.9c-3.6,0-6.2-3.5-5.1-7L96.9,3.8C97.6,1.5,99.6,0,102,0h28.4
		C134,0,136.6,3.5,135.5,7z"/>
</g>
<g>
	<path d="M252.1,174.1l-109.3-64c-3-1.8-4.9-5-4.9-8.5V77.1c0-3.5,1.8-6.7,4.8-8.5L252,3.9c6.6-3.9,14.9,0.8,14.9,8.5v6.8
		c0,7-3.7,13.4-9.7,17l-61.6,36.9c-12.9,7.7-12.9,26.5,0.1,34.1l61.3,36.1c6.1,3.6,9.8,10.1,9.8,17.1v5.1
		C266.9,173.2,258.7,177.9,252.1,174.1z"/>
</g>
<g>
	<path d="M215.8,235.6v-5.1c0-7,3.7-13.5,9.8-17.1l61.3-36.1c13-7.6,13.1-26.4,0.1-34.1l-61.6-36.9c-6-3.6-9.7-10.1-9.7-17v-6.8
		c0-7.7,8.3-12.4,14.9-8.5l109.3,64.7c3,1.8,4.8,5,4.8,8.5v24.4c0,3.5-1.9,6.8-4.9,8.5l-109.3,64
		C224.1,247.9,215.8,243.2,215.8,235.6z"/>
</g>
</svg>
