<svg class="internet" width="86" height="86" viewBox="0 0 86 86" fill="none" xmlns="http://www.w3.org/2000/svg">
<path d="M43 0.669189C19.6588 0.669189 0.669144 19.6589 0.669144 43C0.669144 66.3412 19.6588 85.3309 43 85.3309C66.3412 85.3309 85.3309 66.3412 85.3309 43C85.3309 19.6589 66.3412 0.669189 43 0.669189ZM36.5638 17.8706C38.8227 12.1609 41.4239 9.60512 43 9.60512C44.5761 9.60512 47.177 12.1609 49.4356 17.8706C50.1657 19.716 50.8009 21.7433 51.3429 23.9062C48.6249 23.6762 45.8336 23.5548 42.9997 23.5548C40.1661 23.5548 37.3751 23.6762 34.6566 23.9062C35.1988 21.7433 35.8338 19.7163 36.5638 17.8706ZM29.0744 12.6509C28.7966 13.2654 28.5223 13.9058 28.2543 14.5836C27.0001 17.7544 25.9832 21.346 25.217 25.2173C21.3457 25.9835 17.7541 27.0004 14.5833 28.2547C13.906 28.5226 13.2656 28.7969 12.6509 29.0747C15.9857 21.8357 21.8357 15.9858 29.0744 12.6509ZM9.60535 43C9.60535 41.424 12.1612 38.823 17.8708 36.5644C19.7163 35.8343 21.7435 35.1991 23.9064 34.6572C23.6764 37.3752 23.555 40.1664 23.555 43.0003C23.555 45.8342 23.6764 48.6249 23.9064 51.3434C21.7435 50.8012 19.7165 50.1663 17.8708 49.4362C12.1606 47.1771 9.60535 44.5761 9.60535 43ZM12.6509 56.9257C13.2653 57.2035 13.9057 57.4777 14.5833 57.7457C17.7541 59 21.3457 60.0169 25.217 60.7831C25.9832 64.6544 27.0001 68.246 28.2543 71.4168C28.5223 72.0943 28.7966 72.7347 29.0744 73.3494C21.8357 70.0143 15.9857 64.1644 12.6509 56.9257ZM49.4359 68.1295C47.177 73.8392 44.5761 76.395 43 76.395C41.4239 76.395 38.8227 73.8392 36.5641 68.1295C35.834 66.2841 35.1988 64.2568 34.6569 62.0939C37.3748 62.3239 40.1661 62.4453 43 62.4453C45.8336 62.4453 48.6246 62.3239 51.3431 62.0939C50.8009 64.2568 50.166 66.2838 49.4359 68.1295ZM52.9608 52.9606C49.7722 53.3204 46.4284 53.5093 43 53.5093C39.5711 53.5093 36.2275 53.3201 33.0392 52.9606C32.6797 49.772 32.4904 46.4284 32.4904 42.9998C32.4904 39.5709 32.6797 36.2273 33.0392 33.039C36.2278 32.6794 39.5716 32.4902 43 32.4902C46.4286 32.4902 49.7725 32.6794 52.9608 33.039C53.3204 36.2275 53.5096 39.5711 53.5096 42.9998C53.5096 46.4287 53.3206 49.7723 52.9608 52.9606ZM73.3491 29.0744C72.7347 28.7966 72.094 28.5224 71.4164 28.2544C68.2457 27.0001 64.6541 25.9832 60.7827 25.217C60.0166 21.3457 58.9996 17.7541 57.7454 14.5833C57.4774 13.9058 57.2032 13.2654 56.9254 12.6507C64.1643 15.9858 70.0143 21.8357 73.3491 29.0744ZM56.9256 73.3491C57.2034 72.7347 57.4777 72.0941 57.7457 71.4165C58.9999 68.2457 60.0168 64.6541 60.783 60.7828C64.6543 60.0166 68.2459 58.9997 71.4167 57.7454C72.0943 57.4775 72.7347 57.2032 73.3494 56.9254C70.0143 64.1644 64.1643 70.0143 56.9256 73.3491ZM68.1295 49.4357C66.284 50.1658 64.2568 50.8009 62.0939 51.3429C62.3238 48.6249 62.4452 45.8337 62.4452 42.9998C62.4452 40.1659 62.3238 37.3752 62.0939 34.6566C64.2568 35.1989 66.2838 35.8338 68.1295 36.5639C73.8391 38.8225 76.3949 41.4234 76.3949 42.9995C76.3947 44.5756 73.8391 47.1771 68.1295 49.4357Z" fill="#17727E"/>
</svg>
