<svg class="internet_back" width="140" height="140" viewBox="0 0 140 140" fill="none" xmlns="http://www.w3.org/2000/svg">
<path d="M131.708 58.7705C129.442 46.3129 123.357 34.659 114.349 25.6506C105.341 16.643 93.6868 10.558 81.2293 8.29172C79.75 3.49562 75.276 0 70 0C64.7243 0 60.2503 3.49563 58.7705 8.29199C46.3129 10.5582 34.659 16.643 25.6509 25.6509C16.643 34.6587 10.558 46.3132 8.29199 58.7707C3.49563 60.25 0 64.724 0 70C0 75.276 3.49563 79.75 8.29227 81.2295C10.5585 93.6871 16.6433 105.341 25.6512 114.349C34.659 123.357 46.3132 129.442 58.7707 131.708C60.2503 136.504 64.7243 140 70 140C75.276 140 79.75 136.504 81.2295 131.708C93.6871 129.442 105.341 123.357 114.349 114.349C123.357 105.341 129.442 93.6868 131.708 81.2293C136.504 79.7497 140 75.276 140 70C140 64.724 136.504 60.2503 131.708 58.7705ZM70 8.93621C71.5512 8.93621 72.8131 10.1981 72.8131 11.7493C72.8131 11.813 72.8098 11.8765 72.8068 11.9284C72.7163 13.4055 71.4837 14.5627 69.9997 14.5627C68.5161 14.5627 67.2828 13.4055 67.1934 11.9391C67.1899 11.8765 67.1866 11.813 67.1866 11.7493C67.1869 10.1979 68.4488 8.93621 70 8.93621ZM11.9388 72.8063C11.8765 72.8101 11.813 72.8131 11.7493 72.8131C10.1981 72.8131 8.93621 71.5512 8.93621 70C8.93621 68.4488 10.1984 67.1869 11.7493 67.1869C11.81 67.1869 11.8702 67.1899 11.9205 67.1926C11.9246 67.1929 11.929 67.1932 11.9334 67.1934C13.408 67.2864 14.5627 68.5177 14.5627 70C14.5627 71.4837 13.4055 72.7166 11.9388 72.8063ZM70 131.064C68.4488 131.064 67.1869 129.802 67.1869 128.251C67.1869 128.187 67.1902 128.124 67.1932 128.072C67.2834 126.594 68.5163 125.437 70 125.437C71.4837 125.437 72.7166 126.594 72.8063 128.061C72.8101 128.124 72.8131 128.187 72.8131 128.251C72.8131 129.802 71.5512 131.064 70 131.064ZM108.03 108.03C100.487 115.573 90.7843 120.726 80.3914 122.773C78.4134 119.034 74.4808 116.502 70 116.502C65.5205 116.502 61.5893 119.032 59.6099 122.773C49.2168 120.726 39.5131 115.574 31.9695 108.03C24.4264 100.487 19.2746 90.7843 17.2271 80.3917C20.9661 78.4137 23.4984 74.4811 23.4984 70.0003C23.4984 65.5208 20.9677 61.5893 17.2266 59.6102C19.2735 49.2171 24.4259 39.5134 31.9692 31.97C39.5123 24.427 49.2155 19.2746 59.608 17.2277C61.5866 20.9666 65.5186 23.4987 69.9995 23.4987C74.4789 23.4987 78.4101 20.968 80.3895 17.2274C90.7826 19.2741 100.487 24.4267 108.03 31.97C115.573 39.5128 120.725 49.216 122.772 59.6088C119.033 61.5869 116.501 65.5195 116.501 70.0003C116.501 74.4797 119.032 78.4109 122.772 80.3904C120.726 90.7832 115.574 100.487 108.03 108.03ZM128.251 72.8131C128.187 72.8131 128.124 72.8098 128.072 72.8068C126.594 72.7163 125.437 71.4837 125.437 69.9997C125.437 68.5158 126.594 67.2831 128.061 67.1934C128.124 67.1896 128.187 67.1866 128.251 67.1866C129.802 67.1866 131.064 68.4485 131.064 69.9997C131.064 71.5509 129.802 72.8131 128.251 72.8131Z" fill="#00B5B5"/>
</svg>
