<svg width="121" height="122" viewBox="0 0 121 122" fill="none" xmlns="http://www.w3.org/2000/svg">
<path d="M64.0766 58.87C64.7968 58.4526 65.0418 57.5299 64.6243 56.8097C64.2066 56.0889 63.2873 55.8463 62.5631 56.2616C54.0419 61.1983 48.3248 59.7875 45.0298 57.731C40.4254 54.8568 37.7354 48.9543 38.1773 42.6936C38.6181 36.4577 42.0401 31.4776 47.5676 29.028L47.5716 29.0263C51.7826 27.1601 56.3212 27.2039 59.7122 29.1421C63.2495 31.1638 65.4582 35.1738 66.1014 40.7392C66.3541 42.9231 65.5191 46.305 64.0224 47.5617C63.413 48.0765 62.8263 48.2465 62.2339 48.0797C61.5504 47.8857 61.0856 47.3203 60.9874 47.0586C60.983 47.0412 60.9777 47.0258 60.9719 47.009L55.7891 31.2364C55.5344 30.4434 54.6854 30.007 53.8934 30.2622C53.0861 30.5194 52.664 31.366 52.9188 32.159L53.3403 33.4707C53.3082 33.4635 53.2788 33.4506 53.2466 33.4439C50.9174 32.9565 48.3876 33.9296 46.4768 36.0488C43.2218 39.6542 42.8397 46.6985 45.658 51.1228C47.772 54.4412 51.3002 55.6334 55.3399 54.3931C57.1935 53.8222 59.1246 52.3447 60.2026 50.4487C60.5837 50.6801 60.9933 50.8626 61.4132 50.9816C62.967 51.4205 64.5823 51.0276 65.962 49.8709C68.3762 47.8426 69.4517 43.4587 69.0976 40.392C68.1394 32.1098 64.2786 28.2787 61.2092 26.524C56.988 24.1112 51.4328 24.0163 46.3495 26.269L46.3455 26.2708C39.7646 29.1872 35.6909 35.0955 35.169 42.4803C34.6491 49.8407 37.8927 56.8308 43.4332 60.2889C48.2968 63.3245 54.4044 63.3743 60.8973 60.4969C61.9482 60.0315 63.0092 59.4889 64.0766 58.87ZM55.1797 39.1684L58.0246 47.7066C57.8067 49.3775 56.0229 51.0256 54.4536 51.511C51.6938 52.358 49.5908 51.6826 48.2019 49.5028C46.1164 46.229 46.3654 40.6723 48.7154 38.0687C49.2837 37.4392 49.93 36.9643 50.5882 36.6725C51.2815 36.3653 51.9895 36.2617 52.6286 36.3957C53.7734 36.6348 54.6544 37.5942 55.1797 39.1684Z" fill="#AEEA61"/>
<path d="M91.3451 29.9975L78.584 28.2341L69.3256 7.34248C68.9882 6.58126 68.098 6.23722 67.3361 6.57487L14.1736 30.1346C13.4123 30.4719 13.0686 31.3628 13.4059 32.124L22.5793 52.8238C19.1308 57.9612 16.8877 61.588 15.9372 63.5759C14.6311 66.3056 14.6091 69.3812 15.8738 72.2352L33.6055 112.247C35.9604 117.561 42.1996 119.968 47.5131 117.614L110.413 89.7386C113.01 88.5879 114.906 86.5067 115.897 84.0619C115.899 84.0573 115.903 84.0545 115.905 84.0499C115.905 84.0476 115.905 84.0454 115.906 84.0431C116.936 81.4896 116.979 78.5412 115.778 75.8307L98.0464 35.8193C96.9808 33.4142 94.5864 30.4464 91.3451 29.9975ZM80.0209 31.4767L88.9093 32.7049L84.6309 41.879L80.0209 31.4767ZM91.9533 33.3113C93.4018 33.9882 94.6292 35.551 95.2895 37.041L113.021 77.0525C113.678 78.534 113.801 80.1123 113.5 81.5908L75.7224 68.1136L91.9533 33.3113ZM16.7739 32.2807L67.1794 9.94282L82.939 45.5044L67.6802 78.2245L32.2839 67.2795L16.7738 32.2808L16.7739 32.2807ZM24.0261 56.0884L28.4627 66.0997L19.4846 63.324C20.4613 61.5987 21.9947 59.1549 24.0261 56.0884ZM36.3624 111.025L18.6307 71.0134C17.9021 69.3692 17.7853 67.6929 18.2283 66.0926L56.166 77.8216L40.7657 115.058C38.8712 114.395 37.2379 113 36.3624 111.025ZM46.2913 114.856C45.5023 115.206 44.6846 115.376 43.8692 115.443L59.059 78.7161L68.0452 81.4944C68.4053 81.6054 68.7785 81.5753 69.1015 81.4321C69.4245 81.289 69.6982 81.0324 69.8568 80.6907L74.4422 70.8586L112.309 84.3673C111.548 85.4714 110.505 86.3995 109.191 86.9815L46.2913 114.856Z" fill="#00B5B5"/>
</svg>
