<svg width="151" height="153" viewBox="0 0 151 153" fill="none" xmlns="http://www.w3.org/2000/svg">
<path d="M134.773 29.5179C134.765 28.4583 133.85 27.6132 132.846 27.7524L36.9352 41.1749C36.3114 41.2626 35.777 41.6996 35.5416 42.3169C35.3062 42.9342 35.4062 43.6337 35.8032 44.142L56.8177 71.0834L48.4406 101.513C48.1133 102.704 49.024 103.886 50.1801 103.814L81.7961 101.794L95.4729 112.286L109.15 122.778C109.392 122.964 109.673 123.075 109.964 123.11C110.225 123.14 110.493 123.108 110.748 123.01C111.288 122.804 111.699 122.329 111.845 121.744L134.72 29.9959C134.76 29.8376 134.774 29.6772 134.773 29.5179ZM40.4546 44.3446L123.819 32.6781L59.468 68.7217L40.4546 44.3446ZM81.4465 98.1766L52.4294 100.031L60.0028 72.5181L126.967 35.0107L81.4465 98.1766ZM109.158 118.259L84.765 99.5468L129.195 37.8936L109.158 118.259Z" fill="#00B5B5"/>
<path d="M41.2503 108.367L32.1068 116.834C31.3861 117.5 31.3086 118.649 31.9321 119.4C32.2222 119.75 32.6147 119.951 33.0224 119.999C33.4904 120.054 33.9806 119.908 34.3649 119.552L43.5084 111.085C44.2291 110.418 44.3066 109.269 43.6831 108.519C43.0604 107.769 41.9702 107.701 41.2503 108.367Z" fill="#AEEA61"/>
<path d="M31.499 65.906L22.3623 74.3726C21.6424 75.0401 21.5649 76.1894 22.1892 76.9399C22.4794 77.2889 22.871 77.4905 23.279 77.5385C23.7478 77.5936 24.2371 77.4473 24.6224 77.0899L33.7591 68.6234C34.479 67.9559 34.5566 66.8065 33.9322 66.0561C33.3066 65.3064 32.2198 65.2385 31.499 65.906Z" fill="#AEEA61"/>
<path d="M85.5829 120.584L76.447 129.045C75.7263 129.711 75.6487 130.86 76.2722 131.611C76.5624 131.961 76.9548 132.162 77.3626 132.21C77.8306 132.265 78.3207 132.119 78.7051 131.763L87.841 123.302C88.5617 122.636 88.6393 121.486 88.0158 120.736C87.3929 119.987 86.3027 119.918 85.5829 120.584Z" fill="#AEEA61"/>
</svg>
